<?xml version="1.0" encoding="UTF-8" standalone="no"?>
<!DOCTYPE svg PUBLIC "-//W3C//DTD SVG 1.1//EN"
 "http://www.w3.org/Graphics/SVG/1.1/DTD/svg11.dtd">
<!-- Generated by graphviz version 2.40.1 (20161225.0304)
 -->
<!-- Title: state transitions Pages: 1 -->
<svg width="459pt" height="434pt"
 viewBox="0.00 0.00 458.58 434.00" xmlns="http://www.w3.org/2000/svg" xmlns:xlink="http://www.w3.org/1999/xlink">
<g id="graph0" class="graph" transform="scale(1 1) rotate(0) translate(4 430)">
<title>state transitions</title>
<polygon fill="#ffffff" stroke="transparent" points="-4,4 -4,-430 454.575,-430 454.575,4 -4,4"/>
<g id="clust1" class="cluster state regular">
<title>cluster_state_d</title>
<path fill="none" stroke="#000000" stroke-width="2" d="M20,-8C20,-8 348,-8 348,-8 354,-8 360,-14 360,-20 360,-20 360,-406 360,-406 360,-412 354,-418 348,-418 348,-418 20,-418 20,-418 14,-418 8,-412 8,-406 8,-406 8,-20 8,-20 8,-14 14,-8 20,-8"/>
<text text-anchor="start" x="164.8236" y="-399.2" font-family="Helvetica,sans-Serif" font-size="12.00" fill="#000000">state_d</text>
</g>
<!-- state_d -->
<!-- STATE_IDLE -->
<g id="node2" class="node state regular">
<title>STATE_IDLE</title>
<polygon fill="#ffffff" fill-opacity="0.003922" stroke="transparent" stroke-width="2" points="228,-380 134,-380 134,-344 228,-344 228,-380"/>
<text text-anchor="start" x="144.994" y="-358.2" font-family="Helvetica,sans-Serif" font-size="12.00" fill="#000000">STATE_IDLE</text>
<path fill="none" stroke="#000000" stroke-width="2" d="M146.3333,-345C146.3333,-345 215.6667,-345 215.6667,-345 221.3333,-345 227,-350.6667 227,-356.3333 227,-356.3333 227,-367.6667 227,-367.6667 227,-373.3333 221.3333,-379 215.6667,-379 215.6667,-379 146.3333,-379 146.3333,-379 140.6667,-379 135,-373.3333 135,-367.6667 135,-367.6667 135,-356.3333 135,-356.3333 135,-350.6667 140.6667,-345 146.3333,-345"/>
</g>
<!-- STATE_REQUESTING -->
<g id="node3" class="node state regular">
<title>STATE_REQUESTING</title>
<polygon fill="#ffffff" fill-opacity="0.003922" stroke="transparent" stroke-width="2" points="254,-298 108,-298 108,-262 254,-262 254,-298"/>
<text text-anchor="start" x="118.6636" y="-276.2" font-family="Helvetica,sans-Serif" font-size="12.00" fill="#000000">STATE_REQUESTING</text>
<path fill="none" stroke="#000000" stroke-width="2" d="M120.3333,-263C120.3333,-263 241.6667,-263 241.6667,-263 247.3333,-263 253,-268.6667 253,-274.3333 253,-274.3333 253,-285.6667 253,-285.6667 253,-291.3333 247.3333,-297 241.6667,-297 241.6667,-297 120.3333,-297 120.3333,-297 114.6667,-297 109,-291.3333 109,-285.6667 109,-285.6667 109,-274.3333 109,-274.3333 109,-268.6667 114.6667,-263 120.3333,-263"/>
</g>
<!-- STATE_IDLE&#45;&gt;STATE_REQUESTING -->
<g id="edge1" class="edge transition">
<title>STATE_IDLE&#45;&gt;STATE_REQUESTING</title>
<path fill="none" stroke="#000000" d="M181,-343.8015C181,-333.3976 181,-320.1215 181,-308.3768"/>
<polygon fill="#000000" stroke="#000000" points="184.5001,-308.1476 181,-298.1476 177.5001,-308.1476 184.5001,-308.1476"/>
<text text-anchor="start" x="181" y="-318" font-family="Helvetica,sans-Serif" font-size="10.00" fill="#000000">i_stateTransition1 &#160;&#160;</text>
</g>
<!-- state_q -->
<g id="node6" class="node state regular">
<title>state_q</title>
<polygon fill="#ffffff" fill-opacity="0.003922" stroke="transparent" stroke-width="2" points="275.5,-52 214.5,-52 214.5,-16 275.5,-16 275.5,-52"/>
<text text-anchor="start" x="225.8236" y="-30.2" font-family="Helvetica,sans-Serif" font-size="12.00" fill="#000000">state_q</text>
<path fill="none" stroke="#ff0000" stroke-width="2" d="M226.8333,-17C226.8333,-17 263.1667,-17 263.1667,-17 268.8333,-17 274.5,-22.6667 274.5,-28.3333 274.5,-28.3333 274.5,-39.6667 274.5,-39.6667 274.5,-45.3333 268.8333,-51 263.1667,-51 263.1667,-51 226.8333,-51 226.8333,-51 221.1667,-51 215.5,-45.3333 215.5,-39.6667 215.5,-39.6667 215.5,-28.3333 215.5,-28.3333 215.5,-22.6667 221.1667,-17 226.8333,-17"/>
</g>
<!-- STATE_IDLE&#45;&gt;state_q -->
<g id="edge2" class="edge transition">
<title>STATE_IDLE&#45;&gt;state_q</title>
<path fill="none" stroke="#ff0000" d="M228.1684,-355.0288C262.4992,-348.5796 303,-337.4792 303,-321 303,-321 303,-321 303,-253.5 303,-199.7516 351,-196.2484 351,-142.5 351,-142.5 351,-142.5 351,-75 351,-60.3749 315.4557,-48.9395 285.5325,-41.9038"/>
<polygon fill="#ff0000" stroke="#ff0000" points="286.1833,-38.4628 275.6596,-39.6882 284.6505,-45.293 286.1833,-38.4628"/>
<text text-anchor="start" x="340" y="-195" font-family="Helvetica,sans-Serif" font-size="10.00" fill="#ff0000">not (i_stateTransition1) &#160;&#160;</text>
</g>
<!-- STATE_GRANT -->
<g id="node4" class="node state regular">
<title>STATE_GRANT</title>
<polygon fill="#ffffff" fill-opacity="0.003922" stroke="transparent" stroke-width="2" points="172.5,-216 63.5,-216 63.5,-180 172.5,-180 172.5,-216"/>
<text text-anchor="start" x="74.8326" y="-194.2" font-family="Helvetica,sans-Serif" font-size="12.00" fill="#000000">STATE_GRANT</text>
<path fill="none" stroke="#000000" stroke-width="2" d="M75.8333,-181C75.8333,-181 160.1667,-181 160.1667,-181 165.8333,-181 171.5,-186.6667 171.5,-192.3333 171.5,-192.3333 171.5,-203.6667 171.5,-203.6667 171.5,-209.3333 165.8333,-215 160.1667,-215 160.1667,-215 75.8333,-215 75.8333,-215 70.1667,-215 64.5,-209.3333 64.5,-203.6667 64.5,-203.6667 64.5,-192.3333 64.5,-192.3333 64.5,-186.6667 70.1667,-181 75.8333,-181"/>
</g>
<!-- STATE_REQUESTING&#45;&gt;STATE_GRANT -->
<g id="edge3" class="edge transition">
<title>STATE_REQUESTING&#45;&gt;STATE_GRANT</title>
<path fill="none" stroke="#000000" d="M167.0183,-261.8015C158.5356,-250.7606 147.5678,-236.4851 138.1583,-224.2378"/>
<polygon fill="#000000" stroke="#000000" points="140.8106,-221.9451 131.9427,-216.1476 135.2597,-226.2098 140.8106,-221.9451"/>
<text text-anchor="start" x="153" y="-236" font-family="Helvetica,sans-Serif" font-size="10.00" fill="#000000">i_stateTransition2 &#160;&#160;</text>
</g>
<!-- STATE_REQUESTING&#45;&gt;state_q -->
<g id="edge4" class="edge transition">
<title>STATE_REQUESTING&#45;&gt;state_q</title>
<path fill="none" stroke="#ff0000" d="M228.6577,-261.8002C235.177,-257.2893 240.9957,-251.7539 245,-245 247.72,-240.4124 247.7173,-237.5892 245,-233 236.9941,-219.4789 222.0059,-229.5211 214,-216 198.5717,-189.9435 209.3243,-167.9389 234.425,-151 261.8857,-132.4685 286.4184,-159.9597 307,-134 326.0409,-109.9836 301.4653,-79.7686 277.8591,-58.8705"/>
<polygon fill="#ff0000" stroke="#ff0000" points="279.8443,-55.9648 269.955,-52.1629 275.315,-61.302 279.8443,-55.9648"/>
<text text-anchor="start" x="234" y="-154" font-family="Helvetica,sans-Serif" font-size="10.00" fill="#ff0000">not (i_stateTransition2) &#160;&#160;</text>
</g>
<!-- STATE_REVOKE -->
<g id="node5" class="node state regular">
<title>STATE_REVOKE</title>
<polygon fill="#ffffff" fill-opacity="0.003922" stroke="transparent" stroke-width="2" points="133.5,-134 16.5,-134 16.5,-98 133.5,-98 133.5,-134"/>
<text text-anchor="start" x="27.8252" y="-112.2" font-family="Helvetica,sans-Serif" font-size="12.00" fill="#000000">STATE_REVOKE</text>
<path fill="none" stroke="#000000" stroke-width="2" d="M28.8333,-99C28.8333,-99 121.1667,-99 121.1667,-99 126.8333,-99 132.5,-104.6667 132.5,-110.3333 132.5,-110.3333 132.5,-121.6667 132.5,-121.6667 132.5,-127.3333 126.8333,-133 121.1667,-133 121.1667,-133 28.8333,-133 28.8333,-133 23.1667,-133 17.5,-127.3333 17.5,-121.6667 17.5,-121.6667 17.5,-110.3333 17.5,-110.3333 17.5,-104.6667 23.1667,-99 28.8333,-99"/>
</g>
<!-- STATE_GRANT&#45;&gt;STATE_REVOKE -->
<g id="edge5" class="edge transition">
<title>STATE_GRANT&#45;&gt;STATE_REVOKE</title>
<path fill="none" stroke="#000000" d="M91.6597,-179.6378C86.5588,-174.822 81.8461,-169.2132 78.759,-163 75.9589,-157.3645 74.5016,-150.8753 73.833,-144.5534"/>
<polygon fill="#000000" stroke="#000000" points="77.3148,-144.079 73.3548,-134.2521 70.3224,-144.4037 77.3148,-144.079"/>
<text text-anchor="start" x="78" y="-154" font-family="Helvetica,sans-Serif" font-size="10.00" fill="#000000">i_stateTransition3 &#160;&#160;</text>
</g>
<!-- STATE_GRANT&#45;&gt;state_q -->
<g id="edge6" class="edge transition">
<title>STATE_GRANT&#45;&gt;state_q</title>
<path fill="none" stroke="#ff0000" d="M148.6759,-179.9534C155.3086,-175.0566 161.8638,-169.3334 167,-163 186.8604,-138.5105 179.3317,-125.1141 195.425,-98 203.2756,-84.7733 213.4738,-71.1593 222.5778,-59.9063"/>
<polygon fill="#ff0000" stroke="#ff0000" points="225.2978,-62.1092 228.9643,-52.1689 219.8993,-57.6531 225.2978,-62.1092"/>
<text text-anchor="start" x="195" y="-113" font-family="Helvetica,sans-Serif" font-size="10.00" fill="#ff0000">not (i_stateTransition3) &#160;&#160;</text>
</g>
<!-- STATE_REVOKE&#45;&gt;STATE_IDLE -->
<g id="edge7" class="edge transition">
<title>STATE_REVOKE&#45;&gt;STATE_IDLE</title>
<path fill="none" stroke="#000000" d="M66.7885,-134.2608C55.888,-160.2101 38,-209.4972 38,-253.5 38,-321 38,-321 38,-321 38,-339.7495 84.0004,-350.4197 123.8211,-356.1438"/>
<polygon fill="#000000" stroke="#000000" points="123.4005,-359.6187 133.7801,-357.4944 124.3412,-352.6822 123.4005,-359.6187"/>
<text text-anchor="start" x="39" y="-236" font-family="Helvetica,sans-Serif" font-size="10.00" fill="#000000">i_stateTransition4 &#160;&#160;</text>
</g>
<!-- STATE_REVOKE&#45;&gt;state_q -->
<g id="edge8" class="edge transition">
<title>STATE_REVOKE&#45;&gt;state_q</title>
<path fill="none" stroke="#ff0000" d="M62.5397,-97.8709C57.6866,-88.3951 54.7115,-77.1144 61.425,-69 79.152,-47.5739 155.451,-39.1488 203.9318,-35.9205"/>
<polygon fill="#ff0000" stroke="#ff0000" points="204.3553,-39.4011 214.1203,-35.2908 203.9233,-32.4145 204.3553,-39.4011"/>
<text text-anchor="start" x="61" y="-72" font-family="Helvetica,sans-Serif" font-size="10.00" fill="#ff0000">not (i_stateTransition4) &#160;&#160;</text>
</g>
</g>
</svg>
