<?xml version="1.0" encoding="UTF-8" standalone="no"?>
<!DOCTYPE svg PUBLIC "-//W3C//DTD SVG 1.1//EN"
 "http://www.w3.org/Graphics/SVG/1.1/DTD/svg11.dtd">
<!-- Generated by graphviz version 2.40.1 (20161225.0304)
 -->
<!-- Title: state transitions Pages: 1 -->
<svg width="397pt" height="352pt"
 viewBox="0.00 0.00 397.24 352.00" xmlns="http://www.w3.org/2000/svg" xmlns:xlink="http://www.w3.org/1999/xlink">
<g id="graph0" class="graph" transform="scale(1 1) rotate(0) translate(4 348)">
<title>state transitions</title>
<polygon fill="#ffffff" stroke="transparent" points="-4,4 -4,-348 393.241,-348 393.241,4 -4,4"/>
<g id="clust1" class="cluster state regular">
<title>cluster_state_d</title>
<path fill="none" stroke="#000000" stroke-width="2" d="M20,-8C20,-8 310,-8 310,-8 316,-8 322,-14 322,-20 322,-20 322,-324 322,-324 322,-330 316,-336 310,-336 310,-336 20,-336 20,-336 14,-336 8,-330 8,-324 8,-324 8,-20 8,-20 8,-14 14,-8 20,-8"/>
<text text-anchor="start" x="145.8236" y="-317.2" font-family="Helvetica,sans-Serif" font-size="12.00" fill="#000000">state_d</text>
</g>
<!-- state_d -->
<!-- STATE_IDLE -->
<g id="node2" class="node state regular">
<title>STATE_IDLE</title>
<polygon fill="#ffffff" fill-opacity="0.003922" stroke="transparent" stroke-width="2" points="143,-298 49,-298 49,-262 143,-262 143,-298"/>
<text text-anchor="start" x="59.994" y="-276.2" font-family="Helvetica,sans-Serif" font-size="12.00" fill="#000000">STATE_IDLE</text>
<path fill="none" stroke="#000000" stroke-width="2" d="M61.3333,-263C61.3333,-263 130.6667,-263 130.6667,-263 136.3333,-263 142,-268.6667 142,-274.3333 142,-274.3333 142,-285.6667 142,-285.6667 142,-291.3333 136.3333,-297 130.6667,-297 130.6667,-297 61.3333,-297 61.3333,-297 55.6667,-297 50,-291.3333 50,-285.6667 50,-285.6667 50,-274.3333 50,-274.3333 50,-268.6667 55.6667,-263 61.3333,-263"/>
</g>
<!-- STATE_IDLE&#45;&gt;STATE_IDLE -->
<g id="edge2" class="edge transition">
<title>STATE_IDLE&#45;&gt;STATE_IDLE</title>
<path fill="none" stroke="#000000" d="M143.0851,-284.8322C155.5552,-284.556 165,-282.9453 165,-280 165,-277.9291 160.3306,-276.518 153.2234,-275.7666"/>
<polygon fill="#000000" stroke="#000000" points="153.2741,-272.2636 143.0851,-275.1678 152.8613,-279.2514 153.2741,-272.2636"/>
<text text-anchor="start" x="165" y="-277" font-family="Helvetica,sans-Serif" font-size="10.00" fill="#000000">not (i_stateTransition1) &#160;&#160;</text>
</g>
<!-- STATE_REQUESTING -->
<g id="node3" class="node state regular">
<title>STATE_REQUESTING</title>
<polygon fill="#ffffff" fill-opacity="0.003922" stroke="transparent" stroke-width="2" points="162,-216 16,-216 16,-180 162,-180 162,-216"/>
<text text-anchor="start" x="26.6636" y="-194.2" font-family="Helvetica,sans-Serif" font-size="12.00" fill="#000000">STATE_REQUESTING</text>
<path fill="none" stroke="#000000" stroke-width="2" d="M28.3333,-181C28.3333,-181 149.6667,-181 149.6667,-181 155.3333,-181 161,-186.6667 161,-192.3333 161,-192.3333 161,-203.6667 161,-203.6667 161,-209.3333 155.3333,-215 149.6667,-215 149.6667,-215 28.3333,-215 28.3333,-215 22.6667,-215 17,-209.3333 17,-203.6667 17,-203.6667 17,-192.3333 17,-192.3333 17,-186.6667 22.6667,-181 28.3333,-181"/>
</g>
<!-- STATE_IDLE&#45;&gt;STATE_REQUESTING -->
<g id="edge1" class="edge transition">
<title>STATE_IDLE&#45;&gt;STATE_REQUESTING</title>
<path fill="none" stroke="#000000" d="M94.4465,-261.8015C93.5583,-251.3976 92.425,-238.1215 91.4224,-226.3768"/>
<polygon fill="#000000" stroke="#000000" points="94.8872,-225.8136 90.5492,-216.1476 87.9125,-226.4091 94.8872,-225.8136"/>
<text text-anchor="start" x="92" y="-236" font-family="Helvetica,sans-Serif" font-size="10.00" fill="#000000">i_stateTransition1 &#160;&#160;</text>
</g>
<!-- STATE_REQUESTING&#45;&gt;STATE_REQUESTING -->
<g id="edge4" class="edge transition">
<title>STATE_REQUESTING&#45;&gt;STATE_REQUESTING</title>
<path fill="none" stroke="#000000" d="M162.291,-202.5703C175.0938,-201.9609 184,-200.4375 184,-198 184,-196.2861 179.5969,-195.0242 172.5321,-194.2141"/>
<polygon fill="#000000" stroke="#000000" points="172.5291,-190.7037 162.291,-193.4297 171.9945,-197.6833 172.5291,-190.7037"/>
<text text-anchor="start" x="184" y="-195" font-family="Helvetica,sans-Serif" font-size="10.00" fill="#000000">not (i_stateTransition2) &#160;&#160;</text>
</g>
<!-- STATE_GRANT -->
<g id="node4" class="node state regular">
<title>STATE_GRANT</title>
<polygon fill="#ffffff" fill-opacity="0.003922" stroke="transparent" stroke-width="2" points="125.5,-134 16.5,-134 16.5,-98 125.5,-98 125.5,-134"/>
<text text-anchor="start" x="27.8326" y="-112.2" font-family="Helvetica,sans-Serif" font-size="12.00" fill="#000000">STATE_GRANT</text>
<path fill="none" stroke="#000000" stroke-width="2" d="M28.8333,-99C28.8333,-99 113.1667,-99 113.1667,-99 118.8333,-99 124.5,-104.6667 124.5,-110.3333 124.5,-110.3333 124.5,-121.6667 124.5,-121.6667 124.5,-127.3333 118.8333,-133 113.1667,-133 113.1667,-133 28.8333,-133 28.8333,-133 23.1667,-133 17.5,-127.3333 17.5,-121.6667 17.5,-121.6667 17.5,-110.3333 17.5,-110.3333 17.5,-104.6667 23.1667,-99 28.8333,-99"/>
</g>
<!-- STATE_REQUESTING&#45;&gt;STATE_GRANT -->
<g id="edge3" class="edge transition">
<title>STATE_REQUESTING&#45;&gt;STATE_GRANT</title>
<path fill="none" stroke="#000000" d="M85.0052,-179.8015C82.6981,-169.2915 79.7476,-155.8503 77.1502,-144.0177"/>
<polygon fill="#000000" stroke="#000000" points="80.5464,-143.1646 74.9836,-134.1476 73.7092,-144.6655 80.5464,-143.1646"/>
<text text-anchor="start" x="81" y="-154" font-family="Helvetica,sans-Serif" font-size="10.00" fill="#000000">i_stateTransition2 &#160;&#160;</text>
</g>
<!-- STATE_GRANT&#45;&gt;STATE_GRANT -->
<g id="edge6" class="edge transition">
<title>STATE_GRANT&#45;&gt;STATE_GRANT</title>
<path fill="none" stroke="#000000" d="M125.6677,-120.7676C138.2542,-120.3568 147.5,-118.7676 147.5,-116 147.5,-114.054 142.929,-112.6907 135.8398,-111.9099"/>
<polygon fill="#000000" stroke="#000000" points="135.8782,-108.4048 125.6677,-111.2324 135.413,-115.3893 135.8782,-108.4048"/>
<text text-anchor="start" x="147.5" y="-113" font-family="Helvetica,sans-Serif" font-size="10.00" fill="#000000">not (i_stateTransition3) &#160;&#160;</text>
</g>
<!-- STATE_REVOKE -->
<g id="node5" class="node state regular">
<title>STATE_REVOKE</title>
<polygon fill="#ffffff" fill-opacity="0.003922" stroke="transparent" stroke-width="2" points="159.5,-52 42.5,-52 42.5,-16 159.5,-16 159.5,-52"/>
<text text-anchor="start" x="53.8252" y="-30.2" font-family="Helvetica,sans-Serif" font-size="12.00" fill="#000000">STATE_REVOKE</text>
<path fill="none" stroke="#000000" stroke-width="2" d="M54.8333,-17C54.8333,-17 147.1667,-17 147.1667,-17 152.8333,-17 158.5,-22.6667 158.5,-28.3333 158.5,-28.3333 158.5,-39.6667 158.5,-39.6667 158.5,-45.3333 152.8333,-51 147.1667,-51 147.1667,-51 54.8333,-51 54.8333,-51 49.1667,-51 43.5,-45.3333 43.5,-39.6667 43.5,-39.6667 43.5,-28.3333 43.5,-28.3333 43.5,-22.6667 49.1667,-17 54.8333,-17"/>
</g>
<!-- STATE_GRANT&#45;&gt;STATE_REVOKE -->
<g id="edge5" class="edge transition">
<title>STATE_GRANT&#45;&gt;STATE_REVOKE</title>
<path fill="none" stroke="#000000" d="M77.658,-97.8015C81.542,-87.1853 86.5201,-73.5784 90.8806,-61.6596"/>
<polygon fill="#000000" stroke="#000000" points="94.2117,-62.7414 94.3606,-52.1476 87.6378,-60.3363 94.2117,-62.7414"/>
<text text-anchor="start" x="87" y="-72" font-family="Helvetica,sans-Serif" font-size="10.00" fill="#000000">i_stateTransition3 &#160;&#160;</text>
</g>
<!-- STATE_REVOKE&#45;&gt;STATE_IDLE -->
<g id="edge7" class="edge transition">
<title>STATE_REVOKE&#45;&gt;STATE_IDLE</title>
<path fill="none" stroke="#000000" d="M159.845,-45.156C194.161,-54.298 236.2161,-70.3898 265,-98 273.8048,-106.4458 326.4205,-181.4333 301,-216 283.2724,-240.1058 207.1857,-259.1429 152.8903,-269.991"/>
<polygon fill="#000000" stroke="#000000" points="152.1668,-266.566 143.0247,-271.9206 153.5106,-273.4359 152.1668,-266.566"/>
<text text-anchor="start" x="302" y="-154" font-family="Helvetica,sans-Serif" font-size="10.00" fill="#000000">i_stateTransition4 &#160;&#160;</text>
</g>
<!-- STATE_REVOKE&#45;&gt;STATE_REVOKE -->
<g id="edge8" class="edge transition">
<title>STATE_REVOKE&#45;&gt;STATE_REVOKE</title>
<path fill="none" stroke="#000000" d="M159.6116,-38.731C172.299,-38.2684 181.5,-36.6914 181.5,-34 181.5,-32.1076 176.9512,-30.7662 169.84,-29.9757"/>
<polygon fill="#000000" stroke="#000000" points="169.8291,-26.4667 159.6116,-29.269 169.3466,-33.45 169.8291,-26.4667"/>
<text text-anchor="start" x="181.5" y="-31" font-family="Helvetica,sans-Serif" font-size="10.00" fill="#000000">not (i_stateTransition4) &#160;&#160;</text>
</g>
</g>
</svg>
