<?xml version="1.0" encoding="UTF-8" standalone="no"?>
<!DOCTYPE svg PUBLIC "-//W3C//DTD SVG 1.1//EN"
 "http://www.w3.org/Graphics/SVG/1.1/DTD/svg11.dtd">
<!-- Generated by graphviz version 2.43.0 (0)
 -->
<!-- Title: counter Pages: 1 -->
<svg width="1382pt" height="359pt"
 viewBox="0.00 0.00 1381.85 359.00" xmlns="http://www.w3.org/2000/svg" xmlns:xlink="http://www.w3.org/1999/xlink">
<g id="graph0" class="graph" transform="scale(1 1) rotate(0) translate(4 355)">
<title>counter</title>
<polygon fill="white" stroke="transparent" points="-4,4 -4,-355 1377.85,-355 1377.85,4 -4,4"/>
<text text-anchor="middle" x="686.92" y="-7.8" font-family="Times,serif" font-size="14.00">counter</text>
<!-- n3 -->
<g id="node1" class="node">
<title>n3</title>
<polygon fill="none" stroke="black" points="171.41,-126 105.05,-108 171.41,-90 237.77,-108 171.41,-126"/>
<text text-anchor="middle" x="171.41" y="-104.3" font-family="Times,serif" font-size="14.00">count_d</text>
</g>
<!-- c19 -->
<g id="node10" class="node">
<title>c19</title>
<polygon fill="none" stroke="black" points="681.59,-116 681.59,-208 826.59,-208 826.59,-116 681.59,-116"/>
<text text-anchor="middle" x="709.59" y="-192.8" font-family="Times,serif" font-size="14.00">ARST</text>
<polyline fill="none" stroke="black" points="681.59,-185 737.59,-185 "/>
<text text-anchor="middle" x="709.59" y="-169.8" font-family="Times,serif" font-size="14.00">CLK</text>
<polyline fill="none" stroke="black" points="681.59,-162 737.59,-162 "/>
<text text-anchor="middle" x="709.59" y="-146.8" font-family="Times,serif" font-size="14.00">D</text>
<polyline fill="none" stroke="black" points="681.59,-139 737.59,-139 "/>
<text text-anchor="middle" x="709.59" y="-123.8" font-family="Times,serif" font-size="14.00">EN</text>
<polyline fill="none" stroke="black" points="737.59,-116 737.59,-208 "/>
<text text-anchor="middle" x="768.09" y="-165.8" font-family="Times,serif" font-size="14.00">$11</text>
<text text-anchor="middle" x="768.09" y="-150.8" font-family="Times,serif" font-size="14.00">$adffe</text>
<polyline fill="none" stroke="black" points="798.59,-116 798.59,-208 "/>
<text text-anchor="middle" x="812.59" y="-158.3" font-family="Times,serif" font-size="14.00">Q</text>
</g>
<!-- n3&#45;&gt;c19 -->
<g id="edge4" class="edge">
<title>n3:e&#45;&gt;c19:w</title>
<path fill="none" stroke="black" stroke-width="3" d="M237.59,-108C432.42,-108 481.71,-148.58 671.56,-149.96"/>
<polygon fill="black" stroke="black" stroke-width="3" points="671.58,-153.46 681.59,-150 671.6,-146.46 671.58,-153.46"/>
<text text-anchor="middle" x="431.59" y="-130.8" font-family="Times,serif" font-size="14.00">&lt;8&gt;</text>
</g>
<!-- n4 -->
<g id="node2" class="node">
<title>n4</title>
<polygon fill="none" stroke="black" points="962.77,-179 896.41,-161 962.77,-143 1029.13,-161 962.77,-179"/>
<text text-anchor="middle" x="962.77" y="-157.3" font-family="Times,serif" font-size="14.00">count_q</text>
</g>
<!-- c13 -->
<g id="node9" class="node">
<title>c13</title>
<polygon fill="none" stroke="black" points="1098.95,-64 1098.95,-110 1203.95,-110 1203.95,-64 1098.95,-64"/>
<text text-anchor="middle" x="1112.45" y="-94.8" font-family="Times,serif" font-size="14.00">A</text>
<polyline fill="none" stroke="black" points="1098.95,-87 1125.95,-87 "/>
<text text-anchor="middle" x="1112.45" y="-71.8" font-family="Times,serif" font-size="14.00">B</text>
<polyline fill="none" stroke="black" points="1125.95,-64 1125.95,-110 "/>
<text text-anchor="middle" x="1151.95" y="-90.8" font-family="Times,serif" font-size="14.00">$5</text>
<text text-anchor="middle" x="1151.95" y="-75.8" font-family="Times,serif" font-size="14.00">$add</text>
<polyline fill="none" stroke="black" points="1177.95,-64 1177.95,-110 "/>
<text text-anchor="middle" x="1190.95" y="-83.3" font-family="Times,serif" font-size="14.00">Y</text>
</g>
<!-- n4&#45;&gt;c13 -->
<g id="edge6" class="edge">
<title>n4:e&#45;&gt;c13:w</title>
<path fill="none" stroke="black" stroke-width="3" d="M1028.95,-161C1040.58,-161 1038.45,-149.94 1046.95,-142 1066.03,-124.16 1068.57,-104.77 1088.73,-100.07"/>
<polygon fill="black" stroke="black" stroke-width="3" points="1089.37,-103.52 1098.95,-99 1088.64,-96.56 1089.37,-103.52"/>
<text text-anchor="middle" x="1063.95" y="-145.8" font-family="Times,serif" font-size="14.00">&lt;8&gt;</text>
</g>
<!-- x1 -->
<g id="node13" class="node">
<title>x1</title>
<path fill="none" stroke="black" d="M1166.45,-179C1166.45,-179 1136.45,-179 1136.45,-179 1130.45,-179 1124.45,-173 1124.45,-167 1124.45,-167 1124.45,-155 1124.45,-155 1124.45,-149 1130.45,-143 1136.45,-143 1136.45,-143 1166.45,-143 1166.45,-143 1172.45,-143 1178.45,-149 1178.45,-155 1178.45,-155 1178.45,-167 1178.45,-167 1178.45,-173 1172.45,-179 1166.45,-179"/>
<text text-anchor="middle" x="1151.45" y="-157.3" font-family="Times,serif" font-size="14.00">BUF</text>
</g>
<!-- n4&#45;&gt;x1 -->
<g id="edge7" class="edge">
<title>n4:e&#45;&gt;x1:w</title>
<path fill="none" stroke="black" stroke-width="3" d="M1028.95,-161C1067.34,-161 1079.41,-161 1113.28,-161"/>
<polygon fill="black" stroke="black" stroke-width="3" points="1113.45,-164.5 1123.45,-161 1113.45,-157.5 1113.45,-164.5"/>
<text text-anchor="middle" x="1063.95" y="-164.8" font-family="Times,serif" font-size="14.00">&lt;8&gt;</text>
</g>
<!-- n5 -->
<g id="node3" class="node">
<title>n5</title>
<polygon fill="none" stroke="black" points="82.91,-271.54 82.91,-286.46 59.89,-297 27.34,-297 4.33,-286.46 4.33,-271.54 27.34,-261 59.89,-261 82.91,-271.54"/>
<text text-anchor="middle" x="43.62" y="-275.3" font-family="Times,serif" font-size="14.00">i_arst</text>
</g>
<!-- n5&#45;&gt;c19 -->
<g id="edge8" class="edge">
<title>n5:e&#45;&gt;c19:w</title>
<path fill="none" stroke="black" d="M83.62,-279C319.64,-279 381.54,-274.72 611.59,-222 640.14,-215.46 647.12,-200.86 671.37,-197.64"/>
<polygon fill="black" stroke="black" points="671.83,-201.12 681.59,-197 671.39,-194.13 671.83,-201.12"/>
</g>
<!-- n6 -->
<g id="node4" class="node">
<title>n6</title>
<polygon fill="none" stroke="black" points="77.15,-325.54 77.15,-340.46 57.51,-351 29.73,-351 10.08,-340.46 10.08,-325.54 29.73,-315 57.51,-315 77.15,-325.54"/>
<text text-anchor="middle" x="43.62" y="-329.3" font-family="Times,serif" font-size="14.00">i_clk</text>
</g>
<!-- n6&#45;&gt;c19 -->
<g id="edge9" class="edge">
<title>n6:e&#45;&gt;c19:w</title>
<path fill="none" stroke="black" d="M78.62,-333C320.58,-333 392.77,-325.26 611.59,-222 642.38,-207.47 643.88,-180.08 671.6,-174.87"/>
<polygon fill="black" stroke="black" points="671.93,-178.35 681.59,-174 671.33,-171.38 671.93,-178.35"/>
</g>
<!-- n7 -->
<g id="node5" class="node">
<title>n7</title>
<polygon fill="none" stroke="black" points="87.35,-217.54 87.35,-232.46 61.73,-243 25.5,-243 -0.12,-232.46 -0.12,-217.54 25.5,-207 61.73,-207 87.35,-217.54"/>
<text text-anchor="middle" x="43.62" y="-221.3" font-family="Times,serif" font-size="14.00">i_start</text>
</g>
<!-- c20 -->
<g id="node11" class="node">
<title>c20</title>
<polygon fill="none" stroke="black" points="466.59,-166 466.59,-212 611.59,-212 611.59,-166 466.59,-166"/>
<text text-anchor="middle" x="480.09" y="-196.8" font-family="Times,serif" font-size="14.00">A</text>
<polyline fill="none" stroke="black" points="466.59,-189 493.59,-189 "/>
<text text-anchor="middle" x="480.09" y="-173.8" font-family="Times,serif" font-size="14.00">B</text>
<polyline fill="none" stroke="black" points="493.59,-166 493.59,-212 "/>
<text text-anchor="middle" x="539.59" y="-192.8" font-family="Times,serif" font-size="14.00">$3</text>
<text text-anchor="middle" x="539.59" y="-177.8" font-family="Times,serif" font-size="14.00">$logic_and</text>
<polyline fill="none" stroke="black" points="585.59,-166 585.59,-212 "/>
<text text-anchor="middle" x="598.59" y="-185.3" font-family="Times,serif" font-size="14.00">Y</text>
</g>
<!-- n7&#45;&gt;c20 -->
<g id="edge10" class="edge">
<title>n7:e&#45;&gt;c20:w</title>
<path fill="none" stroke="black" d="M87.23,-225C224.98,-225 259.14,-215.13 396.59,-206 424.07,-204.18 433.28,-201.68 456.52,-201.11"/>
<polygon fill="black" stroke="black" points="456.63,-204.61 466.59,-201 456.55,-197.61 456.63,-204.61"/>
</g>
<!-- n8 -->
<g id="node6" class="node">
<title>n8</title>
<polygon fill="none" stroke="black" points="85.13,-163.54 85.13,-178.46 60.81,-189 26.42,-189 2.1,-178.46 2.1,-163.54 26.42,-153 60.81,-153 85.13,-163.54"/>
<text text-anchor="middle" x="43.62" y="-167.3" font-family="Times,serif" font-size="14.00">i_stop</text>
</g>
<!-- c21 -->
<g id="node12" class="node">
<title>c21</title>
<polygon fill="none" stroke="black" points="255.59,-158 255.59,-196 396.59,-196 396.59,-158 255.59,-158"/>
<text text-anchor="middle" x="268.59" y="-173.3" font-family="Times,serif" font-size="14.00">A</text>
<polyline fill="none" stroke="black" points="281.59,-158 281.59,-196 "/>
<text text-anchor="middle" x="326.09" y="-180.8" font-family="Times,serif" font-size="14.00">$2</text>
<text text-anchor="middle" x="326.09" y="-165.8" font-family="Times,serif" font-size="14.00">$logic_not</text>
<polyline fill="none" stroke="black" points="370.59,-158 370.59,-196 "/>
<text text-anchor="middle" x="383.59" y="-173.3" font-family="Times,serif" font-size="14.00">Y</text>
</g>
<!-- n8&#45;&gt;c21 -->
<g id="edge11" class="edge">
<title>n8:e&#45;&gt;c21:w</title>
<path fill="none" stroke="black" d="M86.62,-171C158.24,-171 178.57,-176.45 245.38,-176.96"/>
<polygon fill="black" stroke="black" points="245.58,-180.46 255.59,-177 245.6,-173.46 245.58,-180.46"/>
</g>
<!-- n9 -->
<g id="node7" class="node">
<title>n9</title>
<polygon fill="none" stroke="black" points="1373.79,-153.54 1373.79,-168.46 1344.57,-179 1303.23,-179 1274,-168.46 1274,-153.54 1303.23,-143 1344.57,-143 1373.79,-153.54"/>
<text text-anchor="middle" x="1323.9" y="-157.3" font-family="Times,serif" font-size="14.00">o_count</text>
</g>
<!-- v0 -->
<g id="node8" class="node">
<title>v0</title>
<ellipse fill="none" stroke="black" cx="962.77" cy="-41" rx="27" ry="18"/>
<text text-anchor="middle" x="962.77" y="-37.3" font-family="Times,serif" font-size="14.00">1&#39;1</text>
</g>
<!-- v0&#45;&gt;c13 -->
<g id="edge13" class="edge">
<title>v0:e&#45;&gt;c13:w</title>
<path fill="none" stroke="black" d="M990.77,-41C1013.02,-41 1060.66,-67.5 1088.85,-73.71"/>
<polygon fill="black" stroke="black" points="1088.59,-77.2 1098.95,-75 1089.48,-70.26 1088.59,-77.2"/>
</g>
<!-- c13&#45;&gt;n3 -->
<g id="edge3" class="edge">
<title>c13:e&#45;&gt;n3:w</title>
<path fill="none" stroke="black" stroke-width="3" d="M1205.45,-87C1215.9,-87 1212,-103.27 1204.45,-110.5 1170.6,-142.94 1144.46,-121.77 1098.95,-110.5 1090.17,-108.33 1089.59,-103.69 1080.95,-101 1030.88,-85.39 1016.22,-87 963.77,-87 430.59,-87 430.59,-87 430.59,-87 352.4,-87 324.86,-68.73 255.59,-105 244.7,-110.7 248.76,-120.86 237.59,-126 184.22,-150.55 148.09,-166.37 105.41,-126 103.05,-123.76 101.12,-120.37 100.2,-117.14"/>
<polygon fill="black" stroke="black" stroke-width="3" points="103.4,-118.55 104.41,-108 97.04,-115.61 103.4,-118.55"/>
<text text-anchor="middle" x="646.59" y="-90.8" font-family="Times,serif" font-size="14.00">&lt;8&gt;</text>
</g>
<!-- c19&#45;&gt;n4 -->
<g id="edge5" class="edge">
<title>c19:e&#45;&gt;n4:w</title>
<path fill="none" stroke="black" stroke-width="3" d="M826.59,-162C854.06,-162 863.34,-161.22 886.54,-161.04"/>
<polygon fill="black" stroke="black" stroke-width="3" points="886.61,-164.54 896.59,-161 886.58,-157.54 886.61,-164.54"/>
<text text-anchor="middle" x="861.59" y="-165.8" font-family="Times,serif" font-size="14.00">&lt;8&gt;</text>
</g>
<!-- c20&#45;&gt;c19 -->
<g id="edge1" class="edge">
<title>c20:e&#45;&gt;c19:w</title>
<path fill="none" stroke="black" d="M611.59,-189C649.42,-189 641.95,-137.64 671.63,-128.41"/>
<polygon fill="black" stroke="black" points="672.18,-131.87 681.59,-127 671.2,-124.94 672.18,-131.87"/>
</g>
<!-- c21&#45;&gt;c20 -->
<g id="edge2" class="edge">
<title>c21:e&#45;&gt;c20:w</title>
<path fill="none" stroke="black" d="M396.59,-177C424.06,-177 433.34,-177 456.54,-177"/>
<polygon fill="black" stroke="black" points="456.59,-180.5 466.59,-177 456.59,-173.5 456.59,-180.5"/>
</g>
<!-- x1&#45;&gt;n9 -->
<g id="edge12" class="edge">
<title>x1:e&#45;&gt;n9:w</title>
<path fill="none" stroke="black" stroke-width="3" d="M1179.45,-161C1217.84,-161 1229.91,-161 1263.78,-161"/>
<polygon fill="black" stroke="black" stroke-width="3" points="1263.95,-164.5 1273.95,-161 1263.95,-157.5 1263.95,-164.5"/>
<text text-anchor="middle" x="1238.95" y="-164.8" font-family="Times,serif" font-size="14.00">&lt;8&gt;</text>
</g>
</g>
</svg>
