<?xml version="1.0" encoding="UTF-8" standalone="no"?>
<!DOCTYPE svg PUBLIC "-//W3C//DTD SVG 1.1//EN"
 "http://www.w3.org/Graphics/SVG/1.1/DTD/svg11.dtd">
<!-- Generated by graphviz version 2.43.0 (0)
 -->
<!-- Title: counter Pages: 1 -->
<svg width="1004pt" height="271pt"
 viewBox="0.00 0.00 1003.95 271.00" xmlns="http://www.w3.org/2000/svg" xmlns:xlink="http://www.w3.org/1999/xlink">
<g id="graph0" class="graph" transform="scale(1 1) rotate(0) translate(4 267)">
<title>counter</title>
<polygon fill="white" stroke="transparent" points="-4,4 -4,-267 999.95,-267 999.95,4 -4,4"/>
<text text-anchor="middle" x="497.98" y="-7.8" font-family="Times,serif" font-size="14.00">counter</text>
<!-- n3 -->
<g id="node1" class="node">
<title>n3</title>
<polygon fill="none" stroke="black" points="171.41,-59 105.05,-41 171.41,-23 237.77,-41 171.41,-59"/>
<text text-anchor="middle" x="171.41" y="-37.3" font-family="Times,serif" font-size="14.00">count_d</text>
</g>
<!-- c14 -->
<g id="node7" class="node">
<title>c14</title>
<polygon fill="none" stroke="black" points="648.59,-57 648.59,-149 793.59,-149 793.59,-57 648.59,-57"/>
<text text-anchor="middle" x="676.59" y="-133.8" font-family="Times,serif" font-size="14.00">ARST</text>
<polyline fill="none" stroke="black" points="648.59,-126 704.59,-126 "/>
<text text-anchor="middle" x="676.59" y="-110.8" font-family="Times,serif" font-size="14.00">CLK</text>
<polyline fill="none" stroke="black" points="648.59,-103 704.59,-103 "/>
<text text-anchor="middle" x="676.59" y="-87.8" font-family="Times,serif" font-size="14.00">D</text>
<polyline fill="none" stroke="black" points="648.59,-80 704.59,-80 "/>
<text text-anchor="middle" x="676.59" y="-64.8" font-family="Times,serif" font-size="14.00">EN</text>
<polyline fill="none" stroke="black" points="704.59,-57 704.59,-149 "/>
<text text-anchor="middle" x="735.09" y="-106.8" font-family="Times,serif" font-size="14.00">$11</text>
<text text-anchor="middle" x="735.09" y="-91.8" font-family="Times,serif" font-size="14.00">$adffe</text>
<polyline fill="none" stroke="black" points="765.59,-57 765.59,-149 "/>
<text text-anchor="middle" x="779.59" y="-99.3" font-family="Times,serif" font-size="14.00">Q</text>
</g>
<!-- n3&#45;&gt;c14 -->
<g id="edge3" class="edge">
<title>n3:e&#45;&gt;c14:w</title>
<path fill="none" stroke="black" stroke-width="3" d="M237.59,-41C404.28,-41 452.63,-18.85 611.59,-69 625.99,-73.54 628.79,-84.61 638.73,-89.08"/>
<polygon fill="black" stroke="black" stroke-width="3" points="638.11,-92.53 648.59,-91 639.44,-85.66 638.11,-92.53"/>
<text text-anchor="middle" x="431.59" y="-40.8" font-family="Times,serif" font-size="14.00">&lt;8&gt;</text>
</g>
<!-- n4 -->
<g id="node2" class="node">
<title>n4</title>
<polygon fill="none" stroke="black" points="929.77,-121 863.41,-103 929.77,-85 996.13,-103 929.77,-121"/>
<text text-anchor="middle" x="929.77" y="-99.3" font-family="Times,serif" font-size="14.00">count_q</text>
</g>
<!-- n5 -->
<g id="node3" class="node">
<title>n5</title>
<polygon fill="none" stroke="black" points="82.91,-183.54 82.91,-198.46 59.89,-209 27.34,-209 4.33,-198.46 4.33,-183.54 27.34,-173 59.89,-173 82.91,-183.54"/>
<text text-anchor="middle" x="43.62" y="-187.3" font-family="Times,serif" font-size="14.00">i_arst</text>
</g>
<!-- n5&#45;&gt;c14 -->
<g id="edge5" class="edge">
<title>n5:e&#45;&gt;c14:w</title>
<path fill="none" stroke="black" d="M83.62,-191C332.37,-191 394.7,-139.44 638.35,-138.03"/>
<polygon fill="black" stroke="black" points="638.6,-141.53 648.59,-138 638.58,-134.53 638.6,-141.53"/>
</g>
<!-- n6 -->
<g id="node4" class="node">
<title>n6</title>
<polygon fill="none" stroke="black" points="77.15,-237.54 77.15,-252.46 57.51,-263 29.73,-263 10.08,-252.46 10.08,-237.54 29.73,-227 57.51,-227 77.15,-237.54"/>
<text text-anchor="middle" x="43.62" y="-241.3" font-family="Times,serif" font-size="14.00">i_clk</text>
</g>
<!-- n6&#45;&gt;c14 -->
<g id="edge6" class="edge">
<title>n6:e&#45;&gt;c14:w</title>
<path fill="none" stroke="black" d="M78.62,-245C320.58,-245 384.42,-217.3 611.59,-134 625.15,-129.03 628.82,-120.23 638.6,-116.62"/>
<polygon fill="black" stroke="black" points="639.28,-120.05 648.59,-115 638.16,-113.14 639.28,-120.05"/>
</g>
<!-- n7 -->
<g id="node5" class="node">
<title>n7</title>
<polygon fill="none" stroke="black" points="87.35,-129.54 87.35,-144.46 61.73,-155 25.5,-155 -0.12,-144.46 -0.12,-129.54 25.5,-119 61.73,-119 87.35,-129.54"/>
<text text-anchor="middle" x="43.62" y="-133.3" font-family="Times,serif" font-size="14.00">i_start</text>
</g>
<!-- c18 -->
<g id="node8" class="node">
<title>c18</title>
<polygon fill="none" stroke="black" points="466.59,-78 466.59,-124 611.59,-124 611.59,-78 466.59,-78"/>
<text text-anchor="middle" x="480.09" y="-108.8" font-family="Times,serif" font-size="14.00">A</text>
<polyline fill="none" stroke="black" points="466.59,-101 493.59,-101 "/>
<text text-anchor="middle" x="480.09" y="-85.8" font-family="Times,serif" font-size="14.00">B</text>
<polyline fill="none" stroke="black" points="493.59,-78 493.59,-124 "/>
<text text-anchor="middle" x="539.59" y="-104.8" font-family="Times,serif" font-size="14.00">$3</text>
<text text-anchor="middle" x="539.59" y="-89.8" font-family="Times,serif" font-size="14.00">$logic_and</text>
<polyline fill="none" stroke="black" points="585.59,-78 585.59,-124 "/>
<text text-anchor="middle" x="598.59" y="-97.3" font-family="Times,serif" font-size="14.00">Y</text>
</g>
<!-- n7&#45;&gt;c18 -->
<g id="edge7" class="edge">
<title>n7:e&#45;&gt;c18:w</title>
<path fill="none" stroke="black" d="M87.23,-137C224.98,-137 259.14,-127.13 396.59,-118 424.07,-116.18 433.28,-113.68 456.52,-113.11"/>
<polygon fill="black" stroke="black" points="456.63,-116.61 466.59,-113 456.55,-109.61 456.63,-116.61"/>
</g>
<!-- n8 -->
<g id="node6" class="node">
<title>n8</title>
<polygon fill="none" stroke="black" points="85.13,-75.54 85.13,-90.46 60.81,-101 26.42,-101 2.1,-90.46 2.1,-75.54 26.42,-65 60.81,-65 85.13,-75.54"/>
<text text-anchor="middle" x="43.62" y="-79.3" font-family="Times,serif" font-size="14.00">i_stop</text>
</g>
<!-- c19 -->
<g id="node9" class="node">
<title>c19</title>
<polygon fill="none" stroke="black" points="255.59,-70 255.59,-108 396.59,-108 396.59,-70 255.59,-70"/>
<text text-anchor="middle" x="268.59" y="-85.3" font-family="Times,serif" font-size="14.00">A</text>
<polyline fill="none" stroke="black" points="281.59,-70 281.59,-108 "/>
<text text-anchor="middle" x="326.09" y="-92.8" font-family="Times,serif" font-size="14.00">$2</text>
<text text-anchor="middle" x="326.09" y="-77.8" font-family="Times,serif" font-size="14.00">$logic_not</text>
<polyline fill="none" stroke="black" points="370.59,-70 370.59,-108 "/>
<text text-anchor="middle" x="383.59" y="-85.3" font-family="Times,serif" font-size="14.00">Y</text>
</g>
<!-- n8&#45;&gt;c19 -->
<g id="edge8" class="edge">
<title>n8:e&#45;&gt;c19:w</title>
<path fill="none" stroke="black" d="M86.62,-83C158.24,-83 178.57,-88.45 245.38,-88.96"/>
<polygon fill="black" stroke="black" points="245.58,-92.46 255.59,-89 245.6,-85.46 245.58,-92.46"/>
</g>
<!-- c14&#45;&gt;n4 -->
<g id="edge4" class="edge">
<title>c14:e&#45;&gt;n4:w</title>
<path fill="none" stroke="black" stroke-width="3" d="M793.59,-103C821.06,-103 830.34,-103 853.54,-103"/>
<polygon fill="black" stroke="black" stroke-width="3" points="853.59,-106.5 863.59,-103 853.59,-99.5 853.59,-106.5"/>
<text text-anchor="middle" x="828.59" y="-106.8" font-family="Times,serif" font-size="14.00">&lt;8&gt;</text>
</g>
<!-- c18&#45;&gt;c14 -->
<g id="edge1" class="edge">
<title>c18:e&#45;&gt;c14:w</title>
<path fill="none" stroke="black" d="M611.59,-101C629.49,-101 628.18,-79.21 638.88,-71.05"/>
<polygon fill="black" stroke="black" points="640.1,-74.33 648.59,-68 638,-67.65 640.1,-74.33"/>
</g>
<!-- c19&#45;&gt;c18 -->
<g id="edge2" class="edge">
<title>c19:e&#45;&gt;c18:w</title>
<path fill="none" stroke="black" d="M396.59,-89C424.06,-89 433.34,-89 456.54,-89"/>
<polygon fill="black" stroke="black" points="456.59,-92.5 466.59,-89 456.59,-85.5 456.59,-92.5"/>
</g>
</g>
</svg>
